<svg height="512" viewBox="0 0 74 74" width="512" xmlns="http://www.w3.org/2000/svg"><g id="line_icons" data-name="line icons"><path d="m17.032 62.282a10.317 10.317 0 1 1 10.317-10.316 10.328 10.328 0 0 1 -10.317 10.316zm0-18.633a8.317 8.317 0 1 0 8.317 8.317 8.326 8.326 0 0 0 -8.317-8.317z"/><path d="m31.065 51.827c-.022 0-.044 0-.068 0a1 1 0 0 1 -.931-1.065l2.187-32.5a9.321 9.321 0 0 0 -18.417-1.972l-9.498 32.71a1 1 0 1 1 -1.92-.558l9.482-32.65a11.319 11.319 0 0 1 22.351 2.53l-2.189 32.572a1 1 0 0 1 -.997.933z"/><path d="m56.968 67a15.032 15.032 0 1 1 15.032-15.034 15.049 15.049 0 0 1 -15.032 15.034zm0-28.064a13.032 13.032 0 1 0 13.032 13.03 13.047 13.047 0 0 0 -13.032-13.032z"/><path d="m17.032 67a15.032 15.032 0 1 1 15.032-15.034 15.049 15.049 0 0 1 -15.032 15.034zm0-28.064a13.032 13.032 0 1 0 13.032 13.03 13.047 13.047 0 0 0 -13.032-13.032z"/><path d="m56.968 62.282a10.317 10.317 0 1 1 10.316-10.316 10.328 10.328 0 0 1 -10.316 10.316zm0-18.633a8.317 8.317 0 1 0 8.316 8.317 8.326 8.326 0 0 0 -8.316-8.317z"/><path d="m42.935 51.827a1 1 0 0 1 -1-.933l-2.187-32.5a11.318 11.318 0 0 1 22.364-2.536l9.467 32.588a1 1 0 0 1 -1.92.558l-9.479-32.654a9.321 9.321 0 0 0 -18.431 1.972l2.185 32.438a1 1 0 0 1 -.934 1.065c-.021.002-.043.002-.065.002z"/><path d="m42.143 40.043a1 1 0 0 1 -1-.933l-1.153-17.166a1 1 0 0 1 1.285-1.025l5.327 1.6a1 1 0 0 1 .678.7l2.676 9.981a1 1 0 0 1 -.334 1.033l-6.848 5.589a1 1 0 0 1 -.631.221zm-.06-16.793.928 13.794 4.845-3.955-2.363-8.817z"/><path d="m31.857 40.043a1 1 0 0 1 -.631-.225l-6.847-5.589a1 1 0 0 1 -.334-1.033l2.676-9.981a1 1 0 0 1 .678-.7l5.327-1.6a1 1 0 0 1 1.285 1.026l-1.156 17.169a1 1 0 0 1 -1 .933zm-5.712-6.954 4.844 3.955.929-13.794-3.41 1.022z"/><path d="m41.793 34.844h-9.585a1 1 0 0 1 -1-1.067l.8-11.966a1 1 0 0 1 1-.933h7.975a1 1 0 0 1 1 .933l.8 11.966a1 1 0 0 1 -1 1.067zm-8.516-2h7.447l-.67-9.966h-6.107z"/></g></svg>