<svg width="500" height="500" viewBox="0 0 500 500" fill="none" xmlns="http://www.w3.org/2000/svg">
<rect width="500" height="500" rx="30" fill="white"/>
<rect x="25" y="25" width="450" height="450" rx="225" fill="#FD8087" fill-opacity="0.85"/>
<path d="M190.5 344C190.5 338.477 186.023 334 180.5 334C174.977 334 170.5 338.477 170.5 344H190.5ZM131 199.5C125.477 199.5 121 203.977 121 209.5C121 215.023 125.477 219.5 131 219.5V199.5ZM170.5 344V369H190.5V344H170.5ZM266.499 369V150.25H246.499V369H266.499ZM312.749 199.5H131V219.5H312.749V199.5ZM360.999 150.746C360.999 177.506 339.285 199.5 312.749 199.5V219.5C350.555 219.5 380.999 188.327 380.999 150.746H360.999ZM313.749 103C339.733 103 360.999 124.538 360.999 150.746H380.999C380.999 113.717 351.002 83 313.749 83V103ZM266.499 150.25C266.499 124.155 287.654 103 313.749 103V83C276.608 83 246.499 113.109 246.499 150.25H266.499ZM218.5 417C245.009 417 266.499 395.51 266.499 369H246.499C246.499 384.464 233.964 397 218.5 397V417ZM170.5 369C170.5 395.51 191.99 417 218.5 417V397C203.036 397 190.5 384.464 190.5 369H170.5Z" fill="white"/>
<path d="M182 250C166.492 250 153.875 262.617 153.875 278.125C153.875 283.365 155.326 288.478 158.073 292.914L180.399 328.892C180.827 329.581 181.58 330 182.39 330C182.397 330 182.403 330 182.409 330C183.226 329.994 183.981 329.562 184.401 328.861L206.158 292.534C208.753 288.192 210.125 283.209 210.125 278.125C210.125 262.617 197.508 250 182 250ZM202.135 290.128L182.355 323.154L162.057 290.445C159.771 286.752 158.531 282.492 158.531 278.125C158.531 265.202 169.077 254.656 182 254.656C194.923 254.656 205.453 265.202 205.453 278.125C205.453 282.363 204.295 286.514 202.135 290.128Z" fill="white"/>
<path d="M182 264.062C174.246 264.062 167.938 270.371 167.938 278.125C167.938 285.83 174.143 292.188 182 292.188C189.954 292.188 196.062 285.745 196.062 278.125C196.062 270.371 189.754 264.062 182 264.062ZM182 287.531C176.804 287.531 172.594 283.307 172.594 278.125C172.594 272.956 176.831 268.719 182 268.719C187.169 268.719 191.391 272.956 191.391 278.125C191.391 283.232 187.279 287.531 182 287.531Z" fill="white"/>
<path d="M116.963 187.043C117.227 185.738 116.025 184.637 114.853 185.113L64.0178 205.786C63.4059 206.035 63.0013 206.66 63 207.357C62.9987 208.055 63.4011 208.682 64.0121 208.933L78.2927 214.808V233.315C78.2927 234.095 78.7959 234.774 79.5089 234.954C80.2171 235.134 80.9556 234.775 81.2876 234.073L87.1939 221.587L101.608 232.983C102.484 233.676 103.745 233.235 104.064 232.121C117.521 185.117 116.939 187.161 116.963 187.043ZM104.415 192.966L79.6505 211.754L68.9953 207.37L104.415 192.966ZM81.4568 214.521L103.043 198.145C84.4683 219.019 85.4384 217.921 85.3574 218.037C85.237 218.209 85.5667 217.537 81.4568 226.225V214.521ZM101.692 228.852L89.0043 218.821L111.945 193.04L101.692 228.852Z" fill="white"/>
</svg>
