<svg width="30" height="30" viewBox="0 0 30 30" fill="none" xmlns="http://www.w3.org/2000/svg">
<path d="M23.4377 8.90622H15.0001C14.6764 8.90622 14.4141 9.16854 14.4141 9.49216C14.4141 9.81577 14.6764 10.0781 15.0001 10.0781H23.4377C23.7613 10.0781 24.0236 9.81577 24.0236 9.49216C24.0236 9.16854 23.7613 8.90622 23.4377 8.90622Z" fill="black"/>
<path d="M21.3873 11.8905C21.2783 11.7815 21.1271 11.7188 20.973 11.7188C20.8189 11.7188 20.6677 11.7815 20.5588 11.8905C20.4498 11.9994 20.3871 12.1506 20.3871 12.3047C20.3871 12.4588 20.4498 12.61 20.5588 12.719C20.6677 12.828 20.8189 12.8907 20.973 12.8907C21.1271 12.8907 21.2783 12.828 21.3873 12.719C21.4963 12.61 21.559 12.4588 21.559 12.3047C21.559 12.1506 21.4963 11.9994 21.3873 11.8905Z" fill="black"/>
<path d="M15.4137 2.69127C15.3047 2.58229 15.1536 2.51959 14.9994 2.51959C14.8453 2.51959 14.6942 2.58229 14.5852 2.69127C14.4762 2.80026 14.4135 2.95143 14.4135 3.10553C14.4135 3.25963 14.4762 3.4108 14.5852 3.51979C14.6942 3.62877 14.8453 3.69147 14.9994 3.69147C15.1536 3.69147 15.3047 3.62877 15.4137 3.51979C15.5227 3.4108 15.5854 3.25963 15.5854 3.10553C15.5854 2.95143 15.5227 2.80026 15.4137 2.69127Z" fill="black"/>
<path d="M18.5085 11.7187H15.0001C14.6764 11.7187 14.4141 11.981 14.4141 12.3047C14.4141 12.6283 14.6764 12.8906 15.0001 12.8906H18.5085C18.8321 12.8906 19.0944 12.6283 19.0944 12.3047C19.0944 11.981 18.8321 11.7187 18.5085 11.7187Z" fill="black"/>
<path d="M23.4377 15.2343H15.0001C14.6764 15.2343 14.4141 15.4967 14.4141 15.8203C14.4141 16.1439 14.6764 16.4062 15.0001 16.4062H23.4377C23.7613 16.4062 24.0236 16.1439 24.0236 15.8203C24.0236 15.4967 23.7613 15.2343 23.4377 15.2343Z" fill="black"/>
<path d="M21.3873 18.2186C21.2783 18.1096 21.1271 18.0469 20.973 18.0469C20.8189 18.0469 20.6677 18.1096 20.5588 18.2186C20.4498 18.3276 20.3871 18.4787 20.3871 18.6328C20.3871 18.7869 20.4498 18.9381 20.5588 19.0471C20.6677 19.1561 20.8189 19.2188 20.973 19.2188C21.1271 19.2188 21.2783 19.1561 21.3873 19.0471C21.4963 18.9381 21.559 18.7869 21.559 18.6328C21.559 18.4787 21.4963 18.3276 21.3873 18.2186Z" fill="black"/>
<path d="M18.5085 18.0468H15.0001C14.6764 18.0468 14.4141 18.3092 14.4141 18.6328C14.4141 18.9564 14.6764 19.2187 15.0001 19.2187H18.5085C18.8321 19.2187 19.0944 18.9564 19.0944 18.6328C19.0944 18.3092 18.8321 18.0468 18.5085 18.0468Z" fill="black"/>
<path d="M23.4377 21.5625H15.0001C14.6764 21.5625 14.4141 21.8248 14.4141 22.1484C14.4141 22.472 14.6764 22.7343 15.0001 22.7343H23.4377C23.7613 22.7343 24.0236 22.472 24.0236 22.1484C24.0236 21.8248 23.7613 21.5625 23.4377 21.5625Z" fill="black"/>
<path d="M21.3873 24.5467C21.2783 24.4377 21.1271 24.375 20.973 24.375C20.8189 24.375 20.6677 24.4377 20.5588 24.5467C20.4498 24.6557 20.3871 24.8068 20.3871 24.9609C20.3871 25.115 20.4498 25.2662 20.5588 25.3752C20.6677 25.4842 20.8189 25.5469 20.973 25.5469C21.1271 25.5469 21.2783 25.4842 21.3873 25.3752C21.4963 25.2662 21.559 25.115 21.559 24.9609C21.559 24.8068 21.4963 24.6557 21.3873 24.5467Z" fill="black"/>
<path d="M18.5085 24.3749H15.0001C14.6764 24.3749 14.4141 24.6373 14.4141 24.9609C14.4141 25.2845 14.6764 25.5468 15.0001 25.5468H18.5085C18.8321 25.5468 19.0944 25.2845 19.0944 24.9609C19.0944 24.6373 18.8321 24.3749 18.5085 24.3749Z" fill="black"/>
<path d="M24.565 2.28521H20.0897C19.4427 1.66875 18.5682 1.28906 17.6062 1.28906H17.0929C16.7005 0.512226 15.8943 0 15 0C14.1057 0 13.2995 0.512226 12.9071 1.28906H12.3926C11.4305 1.28906 10.5561 1.66875 9.90913 2.28521H5.4351C3.8598 2.28521 2.57819 3.56683 2.57819 5.14212V27.1431C2.57819 28.7184 3.8598 30 5.4351 30H24.5649C26.1402 30 27.4218 28.7184 27.4218 27.1431V5.14212C27.4219 3.56683 26.1403 2.28521 24.565 2.28521ZM12.3926 2.46093H13.3059C13.5694 2.46093 13.8005 2.28498 13.8706 2.03097C14.0104 1.52513 14.4748 1.17187 15 1.17187C15.5253 1.17187 15.9897 1.52513 16.1294 2.03097C16.1995 2.28498 16.4307 2.46093 16.6942 2.46093H17.6062C18.8779 2.46093 19.9248 3.44238 20.0292 4.68755H9.96954C10.074 3.44238 11.1209 2.46093 12.3926 2.46093ZM26.25 27.1432C26.25 28.0723 25.4941 28.8282 24.565 28.8282H5.4351C4.50598 28.8282 3.75006 28.0723 3.75006 27.1432V5.14212C3.75006 4.213 4.50598 3.45708 5.4351 3.45708H9.08823C8.89628 3.89724 8.78911 4.38251 8.78911 4.89263V5.27349C8.78911 5.5971 9.05144 5.85942 9.37505 5.85942H20.6238C20.9474 5.85942 21.2097 5.5971 21.2097 5.27349V4.89263C21.2097 4.38257 21.1026 3.89724 20.9106 3.45708H24.565C25.4941 3.45708 26.25 4.213 26.25 5.14212V27.1432Z" fill="black"/>
<path d="M11.274 8.76536C11.0452 8.53656 10.6741 8.53656 10.4453 8.76531L7.93975 11.2709L7.1679 10.499C6.93909 10.2703 6.56808 10.2703 6.33921 10.499C6.1104 10.7278 6.1104 11.0989 6.33921 11.3277L7.52544 12.5139C7.63987 12.6284 7.78981 12.6856 7.93975 12.6856C8.08969 12.6856 8.23969 12.6284 8.35407 12.5139L11.274 9.59405C11.5028 9.36525 11.5028 8.99423 11.274 8.76536Z" fill="black"/>
<path d="M9.84381 21.5625H7.03131C6.7077 21.5625 6.44537 21.8248 6.44537 22.1484V24.9609C6.44537 25.2845 6.7077 25.5468 7.03131 25.5468H9.84381C10.1674 25.5468 10.4297 25.2845 10.4297 24.9609V22.1484C10.4297 21.8248 10.1674 21.5625 9.84381 21.5625ZM9.25787 24.375H7.61725V22.7343H9.25787V24.375Z" fill="black"/>
<path d="M9.84381 15.2343H7.03131C6.7077 15.2343 6.44537 15.4967 6.44537 15.8203V18.6328C6.44537 18.9564 6.7077 19.2187 7.03131 19.2187H9.84381C10.1674 19.2187 10.4297 18.9564 10.4297 18.6328V15.8203C10.4297 15.4967 10.1674 15.2343 9.84381 15.2343ZM9.25787 18.0468H7.61725V16.4062H9.25787V18.0468Z" fill="black"/>
</svg>
