<svg width="450" height="450" viewBox="0 0 450 450" fill="none" xmlns="http://www.w3.org/2000/svg">
<rect width="450" height="450" rx="225" fill="#17307E"/>
<path d="M165.5 319C165.5 313.477 161.023 309 155.5 309C149.977 309 145.5 313.477 145.5 319H165.5ZM106 174.5C100.477 174.5 96 178.977 96 184.5C96 190.023 100.477 194.5 106 194.5V174.5ZM145.5 319V344H165.5V319H145.5ZM241.499 344V125.25H221.499V344H241.499ZM287.749 174.5H106V194.5H287.749V174.5ZM335.999 125.746C335.999 152.506 314.285 174.5 287.749 174.5V194.5C325.555 194.5 355.999 163.327 355.999 125.746H335.999ZM288.749 78C314.733 78 335.999 99.5378 335.999 125.746H355.999C355.999 88.717 326.002 58 288.749 58V78ZM241.499 125.25C241.499 99.1545 262.654 78 288.749 78V58C251.608 58 221.499 88.1089 221.499 125.25H241.499ZM193.5 392C220.009 392 241.499 370.51 241.499 344H221.499C221.499 359.464 208.964 372 193.5 372V392ZM145.5 344C145.5 370.51 166.99 392 193.5 392V372C178.036 372 165.5 359.464 165.5 344H145.5Z" fill="#FFF5F5"/>
<path d="M157 225C141.492 225 128.875 237.617 128.875 253.125C128.875 258.365 130.326 263.478 133.073 267.914L155.399 303.892C155.827 304.581 156.58 305 157.39 305C157.397 305 157.403 305 157.409 305C158.226 304.994 158.981 304.562 159.401 303.861L181.158 267.534C183.753 263.192 185.125 258.209 185.125 253.125C185.125 237.617 172.508 225 157 225ZM177.135 265.128L157.355 298.154L137.057 265.445C134.771 261.752 133.531 257.492 133.531 253.125C133.531 240.202 144.077 229.656 157 229.656C169.923 229.656 180.453 240.202 180.453 253.125C180.453 257.363 179.295 261.514 177.135 265.128Z" fill="#FFF5F5"/>
<path d="M157 239.062C149.246 239.062 142.938 245.371 142.938 253.125C142.938 260.83 149.143 267.188 157 267.188C164.954 267.188 171.062 260.745 171.062 253.125C171.062 245.371 164.754 239.062 157 239.062ZM157 262.531C151.804 262.531 147.594 258.307 147.594 253.125C147.594 247.956 151.831 243.719 157 243.719C162.169 243.719 166.391 247.956 166.391 253.125C166.391 258.232 162.279 262.531 157 262.531Z" fill="#FFF5F5"/>
<path d="M91.9633 162.043C92.2266 160.738 91.0252 159.637 89.8533 160.113L39.0178 180.786C38.4059 181.035 38.0013 181.66 38 182.357C37.9987 183.055 38.4011 183.682 39.0121 183.933L53.2927 189.808V208.315C53.2927 209.095 53.7959 209.774 54.5089 209.954C55.2171 210.134 55.9556 209.775 56.2876 209.073L62.1939 196.587L76.6076 207.983C77.4843 208.676 78.7445 208.235 79.0636 207.121C92.5212 160.117 91.9394 162.161 91.9633 162.043ZM79.4147 167.966L54.6505 186.754L43.9953 182.37L79.4147 167.966ZM56.4568 189.521L78.0427 173.145C59.4683 194.019 60.4384 192.921 60.3574 193.037C60.237 193.209 60.5667 192.537 56.4568 201.225V189.521ZM76.6916 203.852L64.0043 193.821L86.9447 168.04L76.6916 203.852Z" fill="#FFF5F5"/>
</svg>
