<svg id="Layer_1" enable-background="new 0 0 512 512" height="512" viewBox="0 0 512 512" width="512" xmlns="http://www.w3.org/2000/svg"><path d="m211 422c-116.346 0-211-94.654-211-211s94.654-211 211-211 211 94.654 211 211-94.654 211-211 211zm0-382c-94.29 0-171 76.71-171 171s76.71 171 171 171 171-76.71 171-171-76.71-171-171-171zm1.919 180c-34.738 0-63-28.262-63-63s28.262-63 63-63 63 28.262 63 63-28.261 63-63 63zm0-86c-12.682 0-23 10.318-23 23s10.318 23 23 23 23-10.318 23-23-10.317-23-23-23zm61.067 193.005c-8.882 0-16.992-5.961-19.339-14.957-4.614-17.692-20.707-30.048-39.134-30.048h-11.187c-18.427 0-34.52 12.356-39.135 30.048-2.789 10.688-13.713 17.09-24.401 14.305-10.688-2.788-17.092-13.713-14.304-24.4 9.208-35.299 41.217-59.952 77.84-59.952h11.187c36.623 0 68.632 24.653 77.84 59.952 2.788 10.688-3.616 21.612-14.304 24.4-1.693.441-3.392.652-5.063.652zm232.196 179.098c7.789-7.832 7.753-20.495-.079-28.284l-90-89.5c-7.832-7.789-20.495-7.752-28.284.079-7.789 7.832-7.753 20.495.079 28.284l90 89.5c3.901 3.881 9.001 5.818 14.102 5.818 5.136 0 10.273-1.968 14.182-5.897z"/></svg>