<svg id="Layer_1" enable-background="new 0 0 512 512" height="512" viewBox="0 0 512 512" width="512" xmlns="http://www.w3.org/2000/svg"><g><path d="m90 383h-60v-84c0-8.284-6.716-15-15-15s-15 6.716-15 15v198c0 8.284 6.716 15 15 15s15-6.716 15-15v-84h45v84c0 8.284 6.716 15 15 15s15-6.716 15-15v-99c0-8.284-6.716-15-15-15z"/><path d="m497 284c-8.284 0-15 6.716-15 15v84h-60c-8.284 0-15 6.716-15 15v99c0 8.284 6.716 15 15 15s15-6.716 15-15v-84h45v84c0 8.284 6.716 15 15 15s15-6.716 15-15v-198c0-8.284-6.716-15-15-15z"/><path d="m338.805 365h63.195c8.284 0 15-6.716 15-15v-30c0-24.813-20.187-45-45-45h-101v-75h138c4.168 0 8.148-1.734 10.986-4.787 2.838-3.052 4.278-7.148 3.974-11.305-3.239-44.366-22.046-85.583-52.958-116.061-27.621-27.232-62.68-43.657-100.002-47.14v-5.707c0-8.284-6.716-15-15-15s-15 6.716-15 15v5.707c-37.321 3.483-72.38 19.909-100.001 47.141-30.912 30.477-49.72 71.695-52.959 116.061-.304 4.157 1.136 8.253 3.974 11.305s6.818 4.786 10.986 4.786h138v75h-101c-24.813 0-45 20.187-45 45v30c0 8.284 6.716 15 15 15h63.195l62.87 71.824-39.543 45.176h-33.522c-8.284 0-15 6.716-15 15s6.716 15 15 15h186c8.284 0 15-6.716 15-15s-6.716-15-15-15h-33.523l-39.543-45.175zm53.213-195h-66.629c-2.076-36.738-8.264-70.618-17.741-96.609-2.043-5.603-4.163-10.638-6.338-15.169 45.903 17.151 81.342 59.537 90.708 111.778zm-181.327-111.779c-2.175 4.531-4.295 9.566-6.338 15.169-9.476 25.991-15.664 59.871-17.741 96.609h-66.63c9.367-52.24 44.805-94.625 90.709-111.778zm21.847 25.446c9.71-26.631 19.593-33.667 23.462-33.667 3.87 0 13.752 7.036 23.462 33.667 8.362 22.937 13.892 53.161 15.881 86.333h-78.688c1.991-33.172 7.52-63.396 15.883-86.333zm-107.538 236.333c0-8.271 6.729-15 15-15h232c8.271 0 15 6.729 15 15v15h-262zm88.065 45h85.871l-42.936 49.051zm62.544 117h-39.217l19.608-22.402z"/></g></svg>